<?xml version="1.0" standalone="no"?>
<!DOCTYPE svg PUBLIC "-//W3C//DTD SVG 20010904//EN"
 "http://www.w3.org/TR/2001/REC-SVG-20010904/DTD/svg10.dtd">
<svg version="1.0" xmlns="http://www.w3.org/2000/svg"
 width="452.000000pt" height="452.000000pt" viewBox="0 0 452.000000 452.000000"
 preserveAspectRatio="xMidYMid meet">

<g transform="translate(0.000000,452.000000) scale(0.100000,-0.100000)"
fill="#000000" stroke="none">
<path d="M700 4142 c-162 -42 -286 -170 -325 -333 -13 -56 -15 -259 -15 -1549
0 -1622 -2 -1553 57 -1663 35 -63 117 -145 180 -180 110 -59 41 -57 1663 -57
1622 0 1553 -2 1663 57 63 35 145 117 180 180 59 110 57 41 57 1663 0 1622 2
1553 -57 1663 -35 63 -117 145 -180 180 -110 59 -40 57 -1668 56 -1369 0
-1495 -2 -1555 -17z m3111 -184 c54 -24 115 -83 141 -136 l23 -47 0 -1515 c0
-1388 -1 -1518 -17 -1551 -24 -54 -83 -115 -136 -141 l-47 -23 -1515 0 -1515
0 -47 23 c-53 26 -112 87 -136 141 -16 33 -17 165 -20 1521 -2 1029 1 1501 8
1537 19 91 98 175 188 199 37 10 361 12 1542 11 1366 -2 1498 -3 1531 -19z"/>
<path d="M1121 3501 c-58 -22 -68 -28 -125 -80 -58 -54 -86 -121 -86 -206 0
-158 107 -272 289 -310 159 -34 330 44 397 181 73 150 -3 330 -172 406 -71 32
-227 36 -303 9z m253 -180 c68 -38 92 -130 49 -189 -28 -39 -104 -64 -176 -57
-90 8 -140 42 -157 106 -12 44 3 91 39 123 49 44 181 53 245 17z"/>
<path d="M935 2776 c-13 -13 -26 -39 -30 -57 -3 -19 -4 -422 -3 -896 l3 -863
28 -27 27 -28 305 0 305 0 27 28 28 27 0 896 0 896 -28 24 -28 24 -305 0 -305
0 -24 -24z m513 -923 l-3 -768 -180 0 -180 0 -3 768 -2 767 185 0 185 0 -2
-767z"/>
<path d="M1746 2774 l-26 -27 0 -889 c0 -618 3 -895 11 -910 23 -43 62 -48
349 -48 277 0 323 6 346 41 5 8 11 248 14 534 l5 520 28 58 c41 82 82 111 167
115 113 7 171 -23 218 -111 l27 -52 5 -522 5 -523 28 -27 27 -28 305 0 305 0
27 28 28 27 3 498 c4 620 -5 726 -73 900 -61 152 -191 298 -327 365 -219 108
-520 100 -725 -19 -23 -13 -44 -24 -47 -24 -3 0 -6 13 -6 29 0 17 -11 42 -26
60 l-26 31 -308 0 -307 0 -27 -26z m514 -240 c0 -81 1 -87 29 -115 48 -47 78
-41 162 37 119 109 262 164 423 164 223 -1 394 -104 485 -292 72 -150 76 -186
76 -748 l0 -495 -180 0 -180 0 -5 475 c-5 422 -7 480 -23 520 -44 112 -117
192 -215 238 -51 24 -69 27 -167 27 -98 0 -116 -3 -167 -27 -75 -35 -138 -95
-176 -166 -59 -110 -62 -141 -62 -629 l0 -443 -180 0 -180 0 0 770 0 770 180
0 180 0 0 -86z"/>
</g>
</svg>
