<svg version="1.1" viewBox="0.0 0.0 264.251968503937 158.6535433070866" fill="none" stroke="none" stroke-linecap="square" stroke-miterlimit="10" xmlns:xlink="http://www.w3.org/1999/xlink" xmlns="http://www.w3.org/2000/svg"><clipPath id="p.0"><path d="m0 0l264.25198 0l0 158.65355l-264.25198 0l0 -158.65355z" clip-rule="nonzero"/></clipPath><g clip-path="url(#p.0)"><path fill="#000000" fill-opacity="0.0" d="m0 0l264.25198 0l0 158.65355l-264.25198 0z" fill-rule="evenodd"/><path fill="#000000" fill-opacity="0.0" d="m0 0l526.7402 0l0 132.50394l-526.7402 0z" fill-rule="evenodd"/><path fill="#ffffff" d="m47.28125 43.383118l-15.359375 0l0 -5.359375q0 -5.0625 -0.4375 -6.328125q-0.4375 -1.28125 -2.078125 -1.28125q-1.421875 0 -1.9375 1.09375q-0.5 1.09375 -0.5 5.609375l0 28.328125q0 3.96875 0.5 5.234375q0.515625 1.25 2.046875 1.25q1.6875 0 2.28125 -1.421875q0.609375 -1.421875 0.609375 -5.546875l0 -6.984375l-3.109375 0l0 -8.96875l17.984375 0l0 31.671875l-9.671875 0l-1.421875 -4.234375q-1.5625 2.734375 -3.953125 4.109375q-2.390625 1.359375 -5.625 1.359375q-3.859375 0 -7.234375 -1.875q-3.375 -1.875 -5.125 -4.640625q-1.75 -2.78125 -2.1875 -5.8125q-0.4375 -3.046875 -0.4375 -9.140625l0 -17.53125q0 -8.453125 0.90625 -12.28125q0.921875 -3.828125 5.234375 -7.015625q4.328125 -3.1875 11.171875 -3.1875q6.75 0 11.1875 2.765625q4.453125 2.765625 5.796875 6.578125q1.359375 3.8125 1.359375 11.0625l0 2.546875zm5.936966 -21.71875l10.859375 0q10.859375 0 14.703125 0.84375q3.859375 0.828125 6.28125 4.28125q2.421875 3.4375 2.421875 10.984375q0 6.890625 -1.71875 9.265625q-1.703125 2.359375 -6.734375 2.84375q4.546875 1.125 6.109375 3.03125q1.578125 1.890625 1.953125 3.484375q0.390625 1.578125 0.390625 8.71875l0 15.5625l-14.25 0l0 -19.609375q0 -4.734375 -0.75 -5.859375q-0.75 -1.140625 -3.921875 -1.140625l0 26.609375l-15.34375 0l0 -59.015625zm15.34375 10.09375l0 13.125q2.59375 0 3.625 -0.703125q1.046875 -0.71875 1.046875 -4.625l0 -3.234375q0 -2.8125 -1.015625 -3.6875q-1.0 -0.875 -3.65625 -0.875zm51.36418 -10.09375l8.78125 59.015625l-15.703125 0l-0.765625 -10.609375l-5.5 0l-0.921875 10.609375l-15.890625 0l7.796875 -59.015625l22.203125 0zm-8.125 37.953125q-1.171875 -10.03125 -2.34375 -24.765625q-2.328125 16.921875 -2.90625 24.765625l5.25 0zm53.802002 -37.953125l0 59.015625l-13.453125 0l-7.984375 -26.828125l0 26.828125l-12.828125 0l0 -59.015625l12.828125 0l8.609375 26.578125l0 -26.578125l12.828125 0zm37.067276 0l0 11.8125l-9.109375 0l0 47.203125l-15.34375 0l0 -47.203125l-9.078125 0l0 -11.8125l33.53125 0z" fill-rule="nonzero"/><path fill="#000000" fill-opacity="0.0" d="m0 63.913387l317.03937 0l0 109.889755l-317.03937 0z" fill-rule="evenodd"/><path fill="#ffffff" d="m38.5625 85.57775l8.78125 59.015633l-15.703125 0l-0.765625 -10.609375l-5.5 0l-0.921875 10.609375l-15.890625 0l7.796875 -59.015633l22.203125 0zm-8.125 37.953125q-1.171875 -10.03125 -2.34375 -24.765625q-2.328125 16.921875 -2.90625 24.765625l5.25 0zm34.270752 -37.953125l0 59.015633l-15.171875 0l0 -59.015633l15.171875 0zm20.012772 0l0 13.953125q1.8125 -2.109375 4.046875 -3.140625q2.25 -1.046875 4.875 -1.046875q3.03125 0 5.25 0.953125q2.21875 0.9375 3.390625 2.65625q1.171875 1.71875 1.40625 3.359375q0.234375 1.640625 0.234375 7.0l0 21.796883q0 5.3125 -0.71875 7.921875q-0.703125 2.609375 -3.328125 4.53125q-2.625 1.90625 -6.234375 1.90625q-2.59375 0 -4.84375 -1.125q-2.234375 -1.140625 -4.078125 -3.390625l-0.953125 3.640625l-13.78125 0l0 -59.015633l14.734375 0zm4.46875 24.390625q0 -3.765625 -0.46875 -4.90625q-0.46875 -1.15625 -1.859375 -1.15625q-1.34375 0 -1.75 1.015625q-0.390625 1.0 -0.390625 5.046875l0 20.843758q0 3.90625 0.453125 5.0q0.453125 1.09375 1.796875 1.09375q1.390625 0 1.796875 -1.125q0.421875 -1.140625 0.421875 -5.4375l0 -20.375008zm34.317505 -13.75l-0.59375 6.34375q3.203125 -6.8125 9.296875 -7.21875l0 17.03125q-4.046875 0 -5.9375 1.09375q-1.890625 1.09375 -2.328125 3.046875q-0.4375 1.9375 -0.4375 8.984375l0 19.093758l-14.734375 0l0 -48.375008l14.734375 0zm27.15773 -10.640625l0 7.6875l-15.171875 0l0 -7.6875l15.171875 0zm0 10.640625l0 48.375008l-15.171875 0l0 -48.375008l15.171875 0zm38.747147 0l0 37.250008q0 7.546875 -0.359375 9.765625q-0.34375 2.203125 -2.453125 4.65625q-2.109375 2.46875 -5.890625 3.75q-3.765625 1.296875 -9.484375 1.296875q-7.046875 0 -11.3125 -2.390625q-4.265625 -2.375 -4.40625 -9.375l14.296875 0q0 3.203125 2.328125 3.203125q1.671875 0 2.21875 -0.984375q0.546875 -0.984375 0.546875 -4.125l0 -3.640625q-1.890625 1.71875 -3.984375 2.59375q-2.09375 0.875 -4.390625 0.875q-3.984375 0 -6.5625 -1.609375q-2.5625 -1.609375 -3.515625 -4.203125q-0.9375 -2.609375 -0.9375 -7.4218826l0 -17.578125q0 -6.890625 2.46875 -9.90625q2.484375 -3.03125 7.5625 -3.03125q2.765625 0 5.03125 1.140625q2.28125 1.125 4.078125 3.375l1.046875 -3.640625l13.71875 0zm-14.765625 12.828125q0 -3.3125 -0.390625 -4.21875q-0.375 -0.921875 -1.6875 -0.921875q-1.28125 0 -1.8125 1.046875q-0.515625 1.03125 -0.515625 4.09375l0 16.265625q0 3.2343826 0.390625 4.2031326q0.40625 0.96875 1.671875 0.96875q1.46875 0 1.90625 -1.15625q0.4375 -1.171875 0.4375 -5.2968826l0 -14.984375zm34.7446 -23.46875l0 13.265625q1.890625 -1.75 4.09375 -2.625q2.203125 -0.875 4.71875 -0.875q3.859375 0 6.578125 1.96875q2.71875 1.96875 3.3125 4.546875q0.609375 2.5625 0.609375 9.375l0 33.359383l-14.734375 0l0 -34.046883q0 -4.234375 -0.421875 -5.4375q-0.40625 -1.203125 -1.875 -1.203125q-1.34375 0 -1.8125 1.25q-0.46875 1.234375 -0.46875 4.921875l0 34.515633l-14.734375 0l0 -59.015633l14.734375 0zm39.91121 4.1875l0 7.625l3.96875 0l0 7.65625l-3.96875 0l0 25.875008q0 4.78125 0.484375 5.328125q0.5 0.546875 4.109375 0.546875l0 7.796875l-5.9375 0q-5.03125 0 -7.1875 -0.421875q-2.15625 -0.421875 -3.796875 -1.921875q-1.640625 -1.515625 -2.046875 -3.46875q-0.390625 -1.953125 -0.390625 -9.171875l0 -24.562508l-3.171875 0l0 -7.65625l3.171875 0l0 -7.625l14.765625 0z" fill-rule="nonzero"/></g></svg>