<svg version="1.1" viewBox="0.0 0.0 264.251968503937 158.6535433070866" fill="none" stroke="none" stroke-linecap="square" stroke-miterlimit="10" xmlns:xlink="http://www.w3.org/1999/xlink" xmlns="http://www.w3.org/2000/svg"><clipPath id="p.0"><path d="m0 0l264.25198 0l0 158.65355l-264.25198 0l0 -158.65355z" clip-rule="nonzero"/></clipPath><g clip-path="url(#p.0)"><path fill="#000000" fill-opacity="0.0" d="m0 0l264.25198 0l0 158.65355l-264.25198 0z" fill-rule="evenodd"/><path fill="#000000" fill-opacity="0.0" d="m0 0l526.7402 0l0 132.50394l-526.7402 0z" fill-rule="evenodd"/><path fill="#058e3f" d="m50.375 43.383118l-18.453125 0l0 -6.90625q0 -4.796875 -0.21875 -5.421875q-0.21875 -0.640625 -0.75 -0.640625q-0.4375 0 -0.671875 0.5q-0.21875 0.484375 -0.21875 4.65625l0 28.328125q0 3.671875 0.25 4.3125q0.265625 0.625 0.75 0.625q0.65625 0 1.0 -0.796875q0.34375 -0.8125 0.34375 -4.625l0 -5.4375l-3.109375 0l0 -12.0625l21.078125 0l0 34.765625l-12.328125 0l-0.65625 -2.34375q-0.078125 0.4375 -2.84375 2.015625q-2.75 1.5625 -6.390625 1.5625q-4.265625 0 -7.984375 -2.0625q-3.71875 -2.078125 -5.671875 -5.15625q-1.9375 -3.078125 -2.40625 -6.328125q-0.46875 -3.265625 -0.46875 -9.46875l0 -17.53125q0 -8.640625 1.0 -12.828125q1.0 -4.1875 5.75 -7.6875q4.75 -3.515625 12.109375 -3.515625q7.1875 0 12.046875 3.03125q4.875 3.015625 6.359375 7.21875q1.484375 4.1875 1.484375 11.703125l0 4.09375zm2.843216 -24.8125l12.40625 0q11.03125 0 15.25 0.921875q4.234375 0.90625 6.96875 4.8125q2.734375 3.890625 2.734375 11.921875q0 7.390625 -2.0625 10.25q-2.0625 2.84375 -7.9375 1.859375q5.40625 -0.25 7.25 1.984375q1.859375 2.234375 2.296875 4.078125q0.453125 1.84375 0.453125 9.171875l0 17.109375l-17.34375 0l0 -21.15625q0 -4.265625 -0.390625 -4.859375q-0.390625 -0.59375 -1.1875 -0.59375l0 26.609375l-18.4375 0l0 -62.109375zm18.4375 13.1875l0 10.03125q0.5625 0 1.0625 -0.34375q0.515625 -0.34375 0.515625 -3.4375l0 -3.234375q0 -2.109375 -0.53125 -2.5625q-0.515625 -0.453125 -1.046875 -0.453125zm51.14543 -13.1875l9.25 62.109375l-18.9375 0l-0.765625 -10.609375l-2.640625 0l-0.921875 10.609375l-19.078125 0l8.203125 -62.109375l24.890625 0zm-11.1875 37.953125q-0.984375 -8.328125 -0.609375 -23.21875q-0.78125 17.078125 -1.234375 23.21875l1.84375 0zm57.083252 -37.953125l0 62.109375l-16.15625 0l-6.828125 -28.375l1.546875 28.375l-15.921875 0l0 -62.109375l15.5 0l7.484375 28.125l-1.546875 -28.125l15.921875 0zm37.067276 0l0 14.90625l-9.109375 0l0 47.203125l-18.4375 0l0 -47.203125l-9.078125 0l0 -14.90625l36.625 0z" fill-rule="nonzero"/><path fill="#000000" fill-opacity="0.0" d="m0 63.913387l317.03937 0l0 109.889755l-317.03937 0z" fill-rule="evenodd"/><path fill="#058e3f" d="m41.4375 82.484l9.25 62.109383l-18.9375 0l-0.765625 -10.609375l-2.640625 0l-0.921875 10.609375l-19.078125 0l8.203125 -62.109383l24.890625 0zm-11.1875 37.953125q-0.984375 -8.328125 -0.609375 -23.21875q-0.78125 17.078125 -1.234375 23.21875l1.84375 0zm37.552002 -37.953125l0 62.109383l-18.265625 0l0 -62.109383l18.265625 0zm20.012772 0l-0.515625 12.71875q-0.171875 -0.59375 2.375 -1.765625q2.546875 -1.1875 5.515625 -1.1875q3.34375 0 5.90625 1.09375q2.578125 1.09375 3.984375 3.15625q1.40625 2.046875 1.671875 3.921875q0.265625 1.875 0.265625 7.34375l0 21.796883q0 5.515625 -0.8125 8.5q-0.8125 2.96875 -3.859375 5.1875q-3.046875 2.21875 -7.15625 2.21875q-2.96875 0 -5.515625 -1.28125q-2.546875 -1.296875 -2.703125 -1.59375l-0.46875 2.0l-16.515625 0l0 -62.109383l17.828125 0zm1.375 25.9375q0 -3.46875 -0.21875 -3.984375q-0.21875 -0.53125 -0.5625 -0.53125q-0.296875 0 -0.453125 0.390625q-0.140625 0.375 -0.140625 4.125l0 20.843758q0 3.59375 0.1875 4.078125q0.203125 0.46875 0.515625 0.46875q0.3125 0 0.484375 -0.5q0.1875 -0.5 0.1875 -4.515625l0 -20.375008zm37.567505 -15.296875l-2.296875 7.890625q2.1875 -8.296875 10.84375 -8.875l0 20.234375q-5.171875 0 -6.59375 0.828125q-1.421875 0.8125 -1.765625 2.34375q-0.34375 1.53125 -0.34375 8.40625l0 20.640633l-17.828125 0l0 -51.468758l17.984375 0zm27.00148 -10.640625l0 10.78125l-18.265625 0l0 -10.78125l18.265625 0zm0 10.640625l0 51.468758l-18.265625 0l0 -51.468758l18.265625 0zm38.747147 0l0 38.796883q0 7.671875 -0.40625 10.15625q-0.390625 2.484375 -2.78125 5.265625q-2.375 2.796875 -6.484375 4.1875q-4.09375 1.40625 -10.0625 1.40625q-7.453125 0 -12.28125 -2.703125q-4.828125 -2.6875 -5.015625 -12.15625l17.421875 0q0 3.203125 0.78125 3.203125q0.765625 0 0.984375 -0.40625q0.234375 -0.421875 0.234375 -3.15625l0.40625 -1.078125q0.09375 0.484375 -2.265625 1.46875q-2.359375 0.984375 -4.96875 0.984375q-4.421875 0 -7.40625 -1.859375q-2.984375 -1.875 -4.078125 -4.859375q-1.078125 -2.984375 -1.078125 -8.062508l0 -17.578125q0 -7.4375 2.875 -10.953125q2.890625 -3.53125 8.703125 -3.53125q3.125 0 5.71875 1.296875q2.59375 1.28125 2.75 1.59375l0.515625 -2.015625l16.4375 0zm-17.859375 14.375q0 -3.0 -0.125 -3.296875q-0.125 -0.296875 -0.40625 -0.296875q-0.328125 0 -0.5625 0.453125q-0.21875 0.453125 -0.21875 3.140625l0 16.265625q0 2.921875 0.140625 3.28125q0.140625 0.34375 0.375 0.34375q0.390625 0 0.59375 -0.53125q0.203125 -0.53125 0.203125 -4.375l0 -14.984375zm37.83835 -25.015625l-0.421875 12.234375q-0.078125 -0.5 2.390625 -1.484375q2.484375 -0.984375 5.296875 -0.984375q4.359375 0 7.515625 2.28125q3.15625 2.28125 3.84375 5.234375q0.6875 2.9375 0.6875 9.921875l0 34.906258l-17.828125 0l0 -35.593758q0 -3.96875 -0.203125 -4.53125q-0.1875 -0.5625 -0.546875 -0.5625q-0.28125 0 -0.515625 0.609375q-0.21875 0.609375 -0.21875 4.015625l0 36.062508l-17.828125 0l0 -62.109383l17.828125 0zm39.91121 4.1875l0 7.625l3.96875 0l0 10.75l-3.96875 0l0 24.328133q0 4.1875 0.0625 4.265625q0.0625 0.0625 4.53125 0.0625l0 10.890625l-7.484375 0q-5.1875 0 -7.625 -0.46875q-2.4375 -0.484375 -4.4375 -2.3125q-1.984375 -1.828125 -2.453125 -4.09375q-0.453125 -2.28125 -0.453125 -9.65625l0 -23.015633l-3.171875 0l0 -10.75l3.171875 0l0 -7.625l17.859375 0z" fill-rule="nonzero"/></g></svg>